<mxfile host="app.diagrams.net" agent="Mozilla/5.0 (Windows NT 10.0; Win64; x64) AppleWebKit/537.36 (KHTML, like Gecko) Chrome/135.0.0.0 Safari/537.36" version="26.2.14">
  <diagram name="Page-1" id="wdygQc3BqSXbiUFi2Zp8">
    <mxGraphModel dx="1310" dy="752" grid="1" gridSize="10" guides="1" tooltips="1" connect="1" arrows="1" fold="1" page="1" pageScale="1" pageWidth="850" pageHeight="1100" math="0" shadow="0">
      <root>
        <mxCell id="0" />
        <mxCell id="1" parent="0" />
        <mxCell id="aP4TOOih-rEmNcO17oNH-1" value="START" style="rounded=1;whiteSpace=wrap;html=1;fillColor=#d5e8d4;strokeColor=#82b366;" parent="1" vertex="1">
          <mxGeometry x="330" y="40" width="120" height="60" as="geometry" />
        </mxCell>
        <mxCell id="aP4TOOih-rEmNcO17oNH-2" value="" style="endArrow=classic;html=1;rounded=0;exitX=0.5;exitY=1;exitDx=0;exitDy=0;" parent="1" source="aP4TOOih-rEmNcO17oNH-1" edge="1">
          <mxGeometry width="50" height="50" relative="1" as="geometry">
            <mxPoint x="380" y="260" as="sourcePoint" />
            <mxPoint x="390" y="170" as="targetPoint" />
          </mxGeometry>
        </mxCell>
        <mxCell id="aP4TOOih-rEmNcO17oNH-3" value="IS YOUR HEIGHT ABOVE&amp;nbsp;&lt;div&gt;120 Cm&lt;/div&gt;" style="rhombus;whiteSpace=wrap;html=1;" parent="1" vertex="1">
          <mxGeometry x="302.5" y="170" width="175" height="150" as="geometry" />
        </mxCell>
        <mxCell id="aP4TOOih-rEmNcO17oNH-4" value="" style="endArrow=classic;html=1;rounded=0;exitX=0;exitY=0.5;exitDx=0;exitDy=0;" parent="1" source="aP4TOOih-rEmNcO17oNH-3" edge="1">
          <mxGeometry width="50" height="50" relative="1" as="geometry">
            <mxPoint x="380" y="260" as="sourcePoint" />
            <mxPoint x="180" y="330" as="targetPoint" />
            <Array as="points">
              <mxPoint x="180" y="245" />
            </Array>
          </mxGeometry>
        </mxCell>
        <mxCell id="aP4TOOih-rEmNcO17oNH-5" value="" style="endArrow=classic;html=1;rounded=0;exitX=1;exitY=0.5;exitDx=0;exitDy=0;" parent="1" source="aP4TOOih-rEmNcO17oNH-3" target="aP4TOOih-rEmNcO17oNH-13" edge="1">
          <mxGeometry width="50" height="50" relative="1" as="geometry">
            <mxPoint x="643" y="250" as="sourcePoint" />
            <mxPoint x="600" y="280" as="targetPoint" />
            <Array as="points">
              <mxPoint x="600" y="245" />
              <mxPoint x="600" y="320" />
            </Array>
          </mxGeometry>
        </mxCell>
        <mxCell id="aP4TOOih-rEmNcO17oNH-8" value="Sorry you cannot ride" style="rounded=1;whiteSpace=wrap;html=1;" parent="1" vertex="1">
          <mxGeometry x="120" y="330" width="120" height="60" as="geometry" />
        </mxCell>
        <mxCell id="aP4TOOih-rEmNcO17oNH-13" value="CAN RIDE" style="rounded=1;whiteSpace=wrap;html=1;" parent="1" vertex="1">
          <mxGeometry x="430" y="360" width="120" height="60" as="geometry" />
        </mxCell>
        <mxCell id="aP4TOOih-rEmNcO17oNH-15" value="" style="endArrow=classic;html=1;rounded=0;exitX=0.5;exitY=1;exitDx=0;exitDy=0;" parent="1" source="aP4TOOih-rEmNcO17oNH-13" target="aP4TOOih-rEmNcO17oNH-16" edge="1">
          <mxGeometry width="50" height="50" relative="1" as="geometry">
            <mxPoint x="460" y="440" as="sourcePoint" />
            <mxPoint x="490" y="480" as="targetPoint" />
          </mxGeometry>
        </mxCell>
        <mxCell id="aP4TOOih-rEmNcO17oNH-19" style="edgeStyle=orthogonalEdgeStyle;rounded=0;orthogonalLoop=1;jettySize=auto;html=1;exitX=0;exitY=0.5;exitDx=0;exitDy=0;" parent="1" source="aP4TOOih-rEmNcO17oNH-16" target="aP4TOOih-rEmNcO17oNH-20" edge="1">
          <mxGeometry relative="1" as="geometry">
            <mxPoint x="360" y="560" as="targetPoint" />
          </mxGeometry>
        </mxCell>
        <mxCell id="aP4TOOih-rEmNcO17oNH-22" style="edgeStyle=orthogonalEdgeStyle;rounded=0;orthogonalLoop=1;jettySize=auto;html=1;exitX=1;exitY=0.5;exitDx=0;exitDy=0;" parent="1" source="aP4TOOih-rEmNcO17oNH-16" target="aP4TOOih-rEmNcO17oNH-24" edge="1">
          <mxGeometry relative="1" as="geometry">
            <mxPoint x="650" y="560" as="targetPoint" />
          </mxGeometry>
        </mxCell>
        <mxCell id="aP4TOOih-rEmNcO17oNH-25" style="edgeStyle=orthogonalEdgeStyle;rounded=0;orthogonalLoop=1;jettySize=auto;html=1;exitX=0.5;exitY=1;exitDx=0;exitDy=0;entryX=0.5;entryY=0;entryDx=0;entryDy=0;" parent="1" source="aP4TOOih-rEmNcO17oNH-16" target="aP4TOOih-rEmNcO17oNH-45" edge="1">
          <mxGeometry relative="1" as="geometry">
            <mxPoint x="489.8421052631579" y="640" as="targetPoint" />
          </mxGeometry>
        </mxCell>
        <mxCell id="aP4TOOih-rEmNcO17oNH-16" value="AGE" style="rhombus;whiteSpace=wrap;html=1;" parent="1" vertex="1">
          <mxGeometry x="450" y="460" width="80" height="80" as="geometry" />
        </mxCell>
        <mxCell id="aP4TOOih-rEmNcO17oNH-20" value="$5" style="rounded=0;whiteSpace=wrap;html=1;" parent="1" vertex="1">
          <mxGeometry x="50" y="470" width="120" height="60" as="geometry" />
        </mxCell>
        <mxCell id="aP4TOOih-rEmNcO17oNH-21" value="AGE &amp;lt;=12" style="text;html=1;align=center;verticalAlign=middle;resizable=0;points=[];autosize=1;strokeColor=none;fillColor=none;" parent="1" vertex="1">
          <mxGeometry x="330" y="468" width="80" height="30" as="geometry" />
        </mxCell>
        <mxCell id="aP4TOOih-rEmNcO17oNH-23" value="AGE &amp;lt;-18" style="text;html=1;align=center;verticalAlign=middle;resizable=0;points=[];autosize=1;strokeColor=none;fillColor=none;" parent="1" vertex="1">
          <mxGeometry x="560" y="468" width="80" height="30" as="geometry" />
        </mxCell>
        <mxCell id="aP4TOOih-rEmNcO17oNH-24" value="$7" style="rounded=0;whiteSpace=wrap;html=1;" parent="1" vertex="1">
          <mxGeometry x="720" y="470" width="120" height="60" as="geometry" />
        </mxCell>
        <mxCell id="aP4TOOih-rEmNcO17oNH-30" style="edgeStyle=orthogonalEdgeStyle;rounded=0;orthogonalLoop=1;jettySize=auto;html=1;exitX=0.5;exitY=1;exitDx=0;exitDy=0;entryX=0.5;entryY=0;entryDx=0;entryDy=0;" parent="1" source="aP4TOOih-rEmNcO17oNH-26" target="aP4TOOih-rEmNcO17oNH-28" edge="1">
          <mxGeometry relative="1" as="geometry" />
        </mxCell>
        <mxCell id="aP4TOOih-rEmNcO17oNH-26" value="$12" style="rounded=0;whiteSpace=wrap;html=1;" parent="1" vertex="1">
          <mxGeometry x="230.00210526315794" y="660" width="120" height="60" as="geometry" />
        </mxCell>
        <mxCell id="aP4TOOih-rEmNcO17oNH-27" value="AGE &amp;gt;18" style="text;html=1;align=center;verticalAlign=middle;resizable=0;points=[];autosize=1;strokeColor=none;fillColor=none;" parent="1" vertex="1">
          <mxGeometry x="490" y="540" width="70" height="30" as="geometry" />
        </mxCell>
        <mxCell id="aP4TOOih-rEmNcO17oNH-33" style="edgeStyle=orthogonalEdgeStyle;rounded=0;orthogonalLoop=1;jettySize=auto;html=1;exitX=0;exitY=0.5;exitDx=0;exitDy=0;" parent="1" source="aP4TOOih-rEmNcO17oNH-28" target="aP4TOOih-rEmNcO17oNH-34" edge="1">
          <mxGeometry relative="1" as="geometry">
            <mxPoint x="290" y="880" as="targetPoint" />
          </mxGeometry>
        </mxCell>
        <mxCell id="aP4TOOih-rEmNcO17oNH-36" style="edgeStyle=orthogonalEdgeStyle;rounded=0;orthogonalLoop=1;jettySize=auto;html=1;exitX=1;exitY=0.5;exitDx=0;exitDy=0;" parent="1" source="aP4TOOih-rEmNcO17oNH-28" target="aP4TOOih-rEmNcO17oNH-37" edge="1">
          <mxGeometry relative="1" as="geometry">
            <mxPoint x="660" y="880" as="targetPoint" />
          </mxGeometry>
        </mxCell>
        <mxCell id="aP4TOOih-rEmNcO17oNH-28" value="WANT PHOTOS" style="rhombus;whiteSpace=wrap;html=1;" parent="1" vertex="1">
          <mxGeometry x="415" y="730" width="150" height="130" as="geometry" />
        </mxCell>
        <mxCell id="aP4TOOih-rEmNcO17oNH-31" style="edgeStyle=orthogonalEdgeStyle;rounded=0;orthogonalLoop=1;jettySize=auto;html=1;exitX=0.5;exitY=1;exitDx=0;exitDy=0;entryX=0.871;entryY=0.315;entryDx=0;entryDy=0;entryPerimeter=0;" parent="1" source="aP4TOOih-rEmNcO17oNH-24" target="aP4TOOih-rEmNcO17oNH-28" edge="1">
          <mxGeometry relative="1" as="geometry">
            <Array as="points">
              <mxPoint x="780" y="771" />
            </Array>
          </mxGeometry>
        </mxCell>
        <mxCell id="aP4TOOih-rEmNcO17oNH-32" style="edgeStyle=orthogonalEdgeStyle;rounded=0;orthogonalLoop=1;jettySize=auto;html=1;exitX=0.5;exitY=1;exitDx=0;exitDy=0;entryX=0.207;entryY=0.294;entryDx=0;entryDy=0;entryPerimeter=0;" parent="1" source="aP4TOOih-rEmNcO17oNH-20" target="aP4TOOih-rEmNcO17oNH-28" edge="1">
          <mxGeometry relative="1" as="geometry">
            <Array as="points">
              <mxPoint x="110" y="768" />
            </Array>
          </mxGeometry>
        </mxCell>
        <mxCell id="aP4TOOih-rEmNcO17oNH-39" style="edgeStyle=orthogonalEdgeStyle;rounded=0;orthogonalLoop=1;jettySize=auto;html=1;exitX=0.5;exitY=1;exitDx=0;exitDy=0;" parent="1" source="aP4TOOih-rEmNcO17oNH-34" edge="1">
          <mxGeometry relative="1" as="geometry">
            <mxPoint x="480" y="970.0000000000002" as="targetPoint" />
          </mxGeometry>
        </mxCell>
        <mxCell id="aP4TOOih-rEmNcO17oNH-34" value="NEW_BILL=BILL+3" style="rounded=1;whiteSpace=wrap;html=1;" parent="1" vertex="1">
          <mxGeometry x="230" y="850" width="120" height="60" as="geometry" />
        </mxCell>
        <mxCell id="aP4TOOih-rEmNcO17oNH-35" value="YES" style="text;html=1;align=center;verticalAlign=middle;resizable=0;points=[];autosize=1;strokeColor=none;fillColor=none;" parent="1" vertex="1">
          <mxGeometry x="335" y="768" width="50" height="30" as="geometry" />
        </mxCell>
        <mxCell id="aP4TOOih-rEmNcO17oNH-40" style="edgeStyle=orthogonalEdgeStyle;rounded=0;orthogonalLoop=1;jettySize=auto;html=1;exitX=0.5;exitY=1;exitDx=0;exitDy=0;" parent="1" source="aP4TOOih-rEmNcO17oNH-37" target="aP4TOOih-rEmNcO17oNH-41" edge="1">
          <mxGeometry relative="1" as="geometry">
            <mxPoint x="480" y="980.0000000000002" as="targetPoint" />
          </mxGeometry>
        </mxCell>
        <mxCell id="aP4TOOih-rEmNcO17oNH-37" value="BILL" style="rounded=1;whiteSpace=wrap;html=1;" parent="1" vertex="1">
          <mxGeometry x="600" y="850" width="120" height="60" as="geometry" />
        </mxCell>
        <mxCell id="aP4TOOih-rEmNcO17oNH-38" value="NO" style="text;html=1;align=center;verticalAlign=middle;resizable=0;points=[];autosize=1;strokeColor=none;fillColor=none;" parent="1" vertex="1">
          <mxGeometry x="580" y="768" width="40" height="30" as="geometry" />
        </mxCell>
        <mxCell id="aP4TOOih-rEmNcO17oNH-42" style="edgeStyle=orthogonalEdgeStyle;rounded=0;orthogonalLoop=1;jettySize=auto;html=1;" parent="1" source="aP4TOOih-rEmNcO17oNH-41" target="aP4TOOih-rEmNcO17oNH-44" edge="1">
          <mxGeometry relative="1" as="geometry">
            <mxPoint x="480" y="1040" as="targetPoint" />
          </mxGeometry>
        </mxCell>
        <mxCell id="aP4TOOih-rEmNcO17oNH-41" value="TOTAL BILL=$X" style="rounded=1;whiteSpace=wrap;html=1;" parent="1" vertex="1">
          <mxGeometry x="420" y="950" width="120" height="40" as="geometry" />
        </mxCell>
        <mxCell id="aP4TOOih-rEmNcO17oNH-44" value="END" style="rounded=1;whiteSpace=wrap;html=1;fillColor=#f8cecc;strokeColor=#b85450;" parent="1" vertex="1">
          <mxGeometry x="420" y="1010" width="120" height="60" as="geometry" />
        </mxCell>
        <mxCell id="aP4TOOih-rEmNcO17oNH-46" style="edgeStyle=orthogonalEdgeStyle;rounded=0;orthogonalLoop=1;jettySize=auto;html=1;entryX=0.5;entryY=0;entryDx=0;entryDy=0;" parent="1" source="aP4TOOih-rEmNcO17oNH-45" target="aP4TOOih-rEmNcO17oNH-26" edge="1">
          <mxGeometry relative="1" as="geometry" />
        </mxCell>
        <mxCell id="aP4TOOih-rEmNcO17oNH-47" style="edgeStyle=orthogonalEdgeStyle;rounded=0;orthogonalLoop=1;jettySize=auto;html=1;exitX=1;exitY=0.5;exitDx=0;exitDy=0;" parent="1" source="aP4TOOih-rEmNcO17oNH-45" target="aP4TOOih-rEmNcO17oNH-48" edge="1">
          <mxGeometry relative="1" as="geometry">
            <mxPoint x="670" y="640" as="targetPoint" />
            <Array as="points">
              <mxPoint x="690" y="630" />
            </Array>
          </mxGeometry>
        </mxCell>
        <mxCell id="aP4TOOih-rEmNcO17oNH-45" value="Age&amp;gt;=45 and&amp;nbsp;&lt;div&gt;Age &amp;lt;=55&lt;/div&gt;" style="rhombus;whiteSpace=wrap;html=1;" parent="1" vertex="1">
          <mxGeometry x="430" y="580" width="115" height="100" as="geometry" />
        </mxCell>
        <mxCell id="aP4TOOih-rEmNcO17oNH-48" value="$0" style="rounded=0;whiteSpace=wrap;html=1;" parent="1" vertex="1">
          <mxGeometry x="640" y="650" width="120" height="60" as="geometry" />
        </mxCell>
        <mxCell id="aP4TOOih-rEmNcO17oNH-49" style="edgeStyle=orthogonalEdgeStyle;rounded=0;orthogonalLoop=1;jettySize=auto;html=1;entryX=0.678;entryY=0.134;entryDx=0;entryDy=0;entryPerimeter=0;" parent="1" source="aP4TOOih-rEmNcO17oNH-48" target="aP4TOOih-rEmNcO17oNH-28" edge="1">
          <mxGeometry relative="1" as="geometry" />
        </mxCell>
      </root>
    </mxGraphModel>
  </diagram>
</mxfile>
